<svg width="22" height="37" viewBox="0 0 22 37" fill="none" xmlns="http://www.w3.org/2000/svg">
<path d="M0.950444 35.3341C0.649157 35.0334 0.410128 34.6763 0.247038 34.2831C0.0839484 33.89 2.46561e-07 33.4685 2.83772e-07 33.0428C3.20984e-07 32.6172 0.0839485 32.1957 0.247038 31.8026C0.410128 31.4094 0.649158 31.0523 0.950444 30.7516L10.732 20.97C12.2941 19.4079 12.2941 16.8753 10.732 15.3132L0.950446 5.53159C0.342769 4.92391 0.00137897 4.09973 0.00137904 3.24034C0.00137912 2.38096 0.34277 1.55677 0.950447 0.949088C1.55812 0.341411 2.38231 2.71496e-05 3.2417 2.72247e-05C4.10108 2.72998e-05 4.92527 0.341411 5.53295 0.949089L20.4504 15.8666C20.7517 16.1673 20.9908 16.5244 21.1539 16.9176C21.3169 17.3107 21.4009 17.7322 21.4009 18.1578C21.4009 18.5835 21.3169 19.005 21.1539 19.3981C20.9908 19.7913 20.7517 20.1484 20.4504 20.4491L5.53294 35.3666C4.29794 36.6016 2.21794 36.6016 0.950444 35.3341Z" fill="white"/>
</svg>
